<svg xmlns="http://www.w3.org/2000/svg" viewBox="0 0 64 64" role="img" aria-label="DailyMacros logo">
  <defs>
    <linearGradient id="dm-mark-bg" x1="10" y1="8" x2="55" y2="58" gradientUnits="userSpaceOnUse">
      <stop offset="0" stop-color="#10233f"/>
      <stop offset="0.58" stop-color="#07111f"/>
      <stop offset="1" stop-color="#11172c"/>
    </linearGradient>
    <linearGradient id="dm-mark-rim" x1="17" y1="16" x2="47" y2="49" gradientUnits="userSpaceOnUse">
      <stop offset="0" stop-color="#dce9ff" stop-opacity="0.82"/>
      <stop offset="0.52" stop-color="#00cfff" stop-opacity="0.5"/>
      <stop offset="1" stop-color="#05ffa1" stop-opacity="0.62"/>
    </linearGradient>
    <linearGradient id="dm-mark-shine" x1="15" y1="10" x2="51" y2="52" gradientUnits="userSpaceOnUse">
      <stop offset="0" stop-color="#ffffff" stop-opacity="0.16"/>
      <stop offset="0.46" stop-color="#ffffff" stop-opacity="0"/>
    </linearGradient>
  </defs>
  <rect x="5" y="5" width="54" height="54" rx="16" fill="url(#dm-mark-bg)"/>
  <rect x="5.75" y="5.75" width="52.5" height="52.5" rx="15.25" fill="none" stroke="#dce9ff" stroke-opacity="0.08" stroke-width="1.5"/>
  <path d="M12 18c6.3-8.3 19.8-10.7 31-5.4 5.8 2.8 9.6 7.3 11.5 12.2-4.9-3.7-10.9-5.7-17.4-5.7H24.8c-4.9 0-9.3-.3-12.8-1.1z" fill="url(#dm-mark-shine)"/>
  <circle cx="32" cy="33" r="18.25" fill="#0c1728" stroke="url(#dm-mark-rim)" stroke-width="2.5"/>
  <path d="M20 48.5h24" fill="none" stroke="#dce9ff" stroke-opacity="0.34" stroke-width="3" stroke-linecap="round"/>
  <rect x="21" y="29" width="7.25" height="13.5" rx="3.625" fill="#05ffa1"/>
  <rect x="28.5" y="22" width="7.25" height="20.5" rx="3.625" fill="#00cfff"/>
  <rect x="36" y="26" width="7.25" height="16.5" rx="3.625" fill="#ff2d78"/>
  <circle cx="45.5" cy="19.5" r="3.5" fill="#ffca28"/>
</svg>
